{
  "accessors": [
    {
      "bufferView": 2,
      "componentType": 5126,
      "count": 65532,
      "max": [
        0.9283990263938904,
        0.14618928730487823,
        0.012399888597428799
      ],
      "min": [
        -1.3265790939331055,
        -1.5950276851654053,
        -0.029527559876441956
      ],
      "type": "VEC3"
    },
    {
      "bufferView": 2,
      "byteOffset": 786384,
      "componentType": 5126,
      "count": 65532,
      "max": [
        0.9999999403953552,
        0.9999999403953552,
        0.0
      ],
      "min": [
        -0.9999999403953552,
        -0.9999999403953552,
        -0.9999999403953552
      ],
      "type": "VEC3"
    },
    {
      "bufferView": 1,
      "componentType": 5126,
      "count": 65532,
      "max": [
        3.3363208770751953,
        11.836265563964844
      ],
      "min": [
        -0.5324149131774902,
        -11.836265563964844
      ],
      "type": "VEC2"
    },
    {
      "bufferView": 0,
      "componentType": 5125,
      "count": 216534,
      "type": "SCALAR"
    },
    {
      "bufferView": 2,
      "byteOffset": 1572768,
      "componentType": 5126,
      "count": 65532,
      "max": [
        6.436404705047607,
        4.727236270904541,
        5.316642761230469
      ],
      "min": [
        -4.8831305503845215,
        -4.727236270904541,
        -0.029527559876441956
      ],
      "type": "VEC3"
    },
    {
      "bufferView": 2,
      "byteOffset": 2359152,
      "componentType": 5126,
      "count": 65532,
      "max": [
        0.9999999403953552,
        0.9999999403953552,
        0.9999999403953552
      ],
      "min": [
        -0.9999999403953552,
        -0.9999999403953552,
        -0.9999999403953552
      ],
      "type": "VEC3"
    },
    {
      "bufferView": 1,
      "byteOffset": 524256,
      "componentType": 5126,
      "count": 65532,
      "max": [
        15.628867149353027,
        36.29670333862305
      ],
      "min": [
        -5.999828338623047,
        -10.894438743591309
      ],
      "type": "VEC2"
    },
    {
      "bufferView": 0,
      "byteOffset": 866136,
      "componentType": 5125,
      "count": 257184,
      "type": "SCALAR"
    },
    {
      "bufferView": 2,
      "byteOffset": 3145536,
      "componentType": 5126,
      "count": 65532,
      "max": [
        6.496062755584717,
        4.762051582336426,
        5.316582679748535
      ],
      "min": [
        -4.921259880065918,
        -4.762051582336426,
        -0.014763821847736835
      ],
      "type": "VEC3"
    },
    {
      "bufferView": 2,
      "byteOffset": 3931920,
      "componentType": 5126,
      "count": 65532,
      "max": [
        0.9984440803527832,
        0.9843662977218628,
        0.9999999403953552
      ],
      "min": [
        -0.9993907809257507,
        -0.9915002584457397,
        -0.9999999403953552
      ],
      "type": "VEC3"
    },
    {
      "bufferView": 1,
      "byteOffset": 1048512,
      "componentType": 5126,
      "count": 65532,
      "max": [
        15.628867149353027,
        57.89834213256836
      ],
      "min": [
        -16.347917556762695,
        -12.230740547180176
      ],
      "type": "VEC2"
    },
    {
      "bufferView": 0,
      "byteOffset": 1894872,
      "componentType": 5125,
      "count": 286851,
      "type": "SCALAR"
    },
    {
      "bufferView": 2,
      "byteOffset": 4718304,
      "componentType": 5126,
      "count": 65532,
      "max": [
        1.6120234727859497,
        1.6120234727859497,
        0.02939930371940136
      ],
      "min": [
        -1.6119790077209473,
        -1.6120234727859497,
        -0.029527559876441956
      ],
      "type": "VEC3"
    },
    {
      "bufferView": 2,
      "byteOffset": 5504688,
      "componentType": 5126,
      "count": 65532,
      "max": [
        0.9915053248405457,
        0.9915053248405457,
        -0.12800849974155426
      ],
      "min": [
        -0.9915002584457397,
        -0.9915053248405457,
        -0.9999999403953552
      ],
      "type": "VEC3"
    },
    {
      "bufferView": 1,
      "byteOffset": 1572768,
      "componentType": 5126,
      "count": 65532,
      "max": [
        2.194645881652832,
        12.230740547180176
      ],
      "min": [
        -2.194645881652832,
        -12.230740547180176
      ],
      "type": "VEC2"
    },
    {
      "bufferView": 0,
      "byteOffset": 3042276,
      "componentType": 5125,
      "count": 282663,
      "type": "SCALAR"
    },
    {
      "bufferView": 2,
      "byteOffset": 6291072,
      "componentType": 5126,
      "count": 9190,
      "max": [
        0.8258790373802185,
        1.5950260162353516,
        0.012399888597428799
      ],
      "min": [
        -0.9283990263938904,
        0.8531931042671204,
        -0.029527559876441956
      ],
      "type": "VEC3"
    },
    {
      "bufferView": 2,
      "byteOffset": 6401352,
      "componentType": 5126,
      "count": 9190,
      "max": [
        0.9780261516571045,
        0.9913005232810974,
        -0.12800849974155426
      ],
      "min": [
        -0.9832929968833923,
        -0.9684541821479797,
        -0.9999999403953552
      ],
      "type": "VEC3"
    },
    {
      "bufferView": 1,
      "byteOffset": 2097024,
      "componentType": 5126,
      "count": 9190,
      "max": [
        0.14400146901607513,
        11.751550674438477
      ],
      "min": [
        -0.14444561302661896,
        -11.836265563964844
      ],
      "type": "VEC2"
    },
    {
      "bufferView": 0,
      "byteOffset": 4172928,
      "componentType": 5125,
      "count": 39414,
      "type": "SCALAR"
    }
  ],
  "asset": {
    "extras": {
      "author": "tce.michaelr (https://sketchfab.com/tce.michaelr)",
      "license": "CC-BY-4.0 (http://creativecommons.org/licenses/by/4.0/)",
      "source": "https://sketchfab.com/3d-models/bowl-mk3-edc342db1d264f96b4632b49d3ddd828",
      "title": "Bowl Mk3"
    },
    "generator": "Sketchfab-11.8.0",
    "version": "2.0"
  },
  "bufferViews": [
    {
      "buffer": 0,
      "byteLength": 4330584,
      "name": "floatBufferViews",
      "target": 34963
    },
    {
      "buffer": 0,
      "byteLength": 2170544,
      "byteOffset": 4330584,
      "byteStride": 8,
      "name": "floatBufferViews",
      "target": 34962
    },
    {
      "buffer": 0,
      "byteLength": 6511632,
      "byteOffset": 6501128,
      "byteStride": 12,
      "name": "floatBufferViews",
      "target": 34962
    }
  ],
  "buffers": [
    {
      "byteLength": 13012760,
      "uri": "scene.bin"
    }
  ],
  "materials": [
    {
      "doubleSided": true,
      "name": "Material_25",
      "pbrMetallicRoughness": {
        "metallicFactor": 0.0,
        "roughnessFactor": 0.6
      }
    }
  ],
  "meshes": [
    {
      "name": "Object_0",
      "primitives": [
        {
          "attributes": {
            "NORMAL": 1,
            "POSITION": 0,
            "TEXCOORD_0": 2
          },
          "indices": 3,
          "material": 0,
          "mode": 4
        }
      ]
    },
    {
      "name": "Object_1",
      "primitives": [
        {
          "attributes": {
            "NORMAL": 5,
            "POSITION": 4,
            "TEXCOORD_0": 6
          },
          "indices": 7,
          "material": 0,
          "mode": 4
        }
      ]
    },
    {
      "name": "Object_2",
      "primitives": [
        {
          "attributes": {
            "NORMAL": 9,
            "POSITION": 8,
            "TEXCOORD_0": 10
          },
          "indices": 11,
          "material": 0,
          "mode": 4
        }
      ]
    },
    {
      "name": "Object_3",
      "primitives": [
        {
          "attributes": {
            "NORMAL": 13,
            "POSITION": 12,
            "TEXCOORD_0": 14
          },
          "indices": 15,
          "material": 0,
          "mode": 4
        }
      ]
    },
    {
      "name": "Object_4",
      "primitives": [
        {
          "attributes": {
            "NORMAL": 17,
            "POSITION": 16,
            "TEXCOORD_0": 18
          },
          "indices": 19,
          "material": 0,
          "mode": 4
        }
      ]
    }
  ],
  "nodes": [
    {
      "children": [
        1
      ],
      "matrix": [
        1.0,
        0.0,
        0.0,
        0.0,
        0.0,
        2.220446049250313e-16,
        -1.0,
        0.0,
        0.0,
        1.0,
        2.220446049250313e-16,
        0.0,
        0.0,
        0.0,
        0.0,
        1.0
      ],
      "name": "Sketchfab_model"
    },
    {
      "children": [
        2,
        3,
        4,
        5,
        6
      ],
      "name": "BreadMakerMk3.obj.cleaner.materialmerger.gles"
    },
    {
      "mesh": 0,
      "name": "Object_2"
    },
    {
      "mesh": 1,
      "name": "Object_3"
    },
    {
      "mesh": 2,
      "name": "Object_4"
    },
    {
      "mesh": 3,
      "name": "Object_5"
    },
    {
      "mesh": 4,
      "name": "Object_6"
    }
  ],
  "scene": 0,
  "scenes": [
    {
      "name": "Sketchfab_Scene",
      "nodes": [
        0
      ]
    }
  ]
}
